<svg width="400" height="400" viewBox="0 0 400 400" fill="none" xmlns="http://www.w3.org/2000/svg">
<mask id="path-1-outside-1_1_2" maskUnits="userSpaceOnUse" x="24" y="73" width="366" height="252" fill="black">
<rect fill="white" x="24" y="73" width="366" height="252"/>
<path d="M110.04 296.6C90.1067 296.6 74.94 291.66 64.54 281.78C54.14 271.9 50.3267 258.64 53.1 242H92.1C91.06 248.413 92.7067 253.527 97.04 257.34C101.373 260.98 107.787 262.8 116.28 262.8C124.427 262.8 131.1 260.98 136.3 257.34C141.5 253.7 144.62 248.673 145.66 242.26C146.527 236.367 145.573 231.34 142.8 227.18C140.2 223.02 135.953 220.247 130.06 218.86L111.6 214.44C96 210.627 84.4733 203.607 77.02 193.38C69.5667 183.153 66.9667 170.847 69.22 156.46C70.9533 145.367 75.0267 135.747 81.44 127.6C87.8533 119.28 96.0867 112.867 106.14 108.36C116.193 103.853 127.633 101.6 140.46 101.6C159.873 101.6 174.52 106.453 184.4 116.16C194.28 125.693 197.92 138.607 195.32 154.9H156.32C157.187 148.833 155.8 144.067 152.16 140.6C148.52 137.133 142.713 135.4 134.74 135.4C127.287 135.4 121.22 137.133 116.54 140.6C112.033 143.893 109.347 148.66 108.48 154.9C107.44 160.793 108.133 165.82 110.56 169.98C112.987 173.967 116.973 176.653 122.52 178.04L142.02 182.72C157.967 186.533 169.667 193.467 177.12 203.52C184.573 213.4 187.173 225.707 184.92 240.44C183.013 251.88 178.68 261.847 171.92 270.34C165.16 278.66 156.493 285.16 145.92 289.84C135.52 294.347 123.56 296.6 110.04 296.6Z"/>
<path d="M209.258 294L239.418 104.2H356.418L350.958 137.48H272.178L265.418 180.12H335.098L329.898 213.4H260.218L252.678 260.72H331.458L326.258 294H209.258Z"/>
</mask>
<path d="M110.04 296.6C90.1067 296.6 74.94 291.66 64.54 281.78C54.14 271.9 50.3267 258.64 53.1 242H92.1C91.06 248.413 92.7067 253.527 97.04 257.34C101.373 260.98 107.787 262.8 116.28 262.8C124.427 262.8 131.1 260.98 136.3 257.34C141.5 253.7 144.62 248.673 145.66 242.26C146.527 236.367 145.573 231.34 142.8 227.18C140.2 223.02 135.953 220.247 130.06 218.86L111.6 214.44C96 210.627 84.4733 203.607 77.02 193.38C69.5667 183.153 66.9667 170.847 69.22 156.46C70.9533 145.367 75.0267 135.747 81.44 127.6C87.8533 119.28 96.0867 112.867 106.14 108.36C116.193 103.853 127.633 101.6 140.46 101.6C159.873 101.6 174.52 106.453 184.4 116.16C194.28 125.693 197.92 138.607 195.32 154.9H156.32C157.187 148.833 155.8 144.067 152.16 140.6C148.52 137.133 142.713 135.4 134.74 135.4C127.287 135.4 121.22 137.133 116.54 140.6C112.033 143.893 109.347 148.66 108.48 154.9C107.44 160.793 108.133 165.82 110.56 169.98C112.987 173.967 116.973 176.653 122.52 178.04L142.02 182.72C157.967 186.533 169.667 193.467 177.12 203.52C184.573 213.4 187.173 225.707 184.92 240.44C183.013 251.88 178.68 261.847 171.92 270.34C165.16 278.66 156.493 285.16 145.92 289.84C135.52 294.347 123.56 296.6 110.04 296.6Z" fill="white"/>
<path d="M209.258 294L239.418 104.2H356.418L350.958 137.48H272.178L265.418 180.12H335.098L329.898 213.4H260.218L252.678 260.72H331.458L326.258 294H209.258Z" fill="#F1CF57"/>
<path d="M64.54 281.78L45.255 302.08L45.255 302.08L64.54 281.78ZM53.1 242V214H29.3804L25.481 237.397L53.1 242ZM92.1 242L119.739 246.482L125.006 214H92.1V242ZM97.04 257.34L78.5424 278.36L78.7841 278.573L79.0306 278.78L97.04 257.34ZM145.66 242.26L173.299 246.742L173.332 246.538L173.362 246.334L145.66 242.26ZM142.8 227.18L119.056 242.02L119.274 242.369L119.503 242.712L142.8 227.18ZM130.06 218.86L123.54 246.09L123.593 246.103L123.647 246.116L130.06 218.86ZM111.6 214.44L104.951 241.639L105.016 241.655L105.08 241.67L111.6 214.44ZM77.02 193.38L99.648 176.888L99.648 176.888L77.02 193.38ZM69.22 156.46L96.8827 160.793L96.8843 160.783L69.22 156.46ZM81.44 127.6L103.441 144.92L103.529 144.807L103.616 144.694L81.44 127.6ZM106.14 108.36L94.6865 82.8097L94.6864 82.8097L106.14 108.36ZM184.4 116.16L164.777 136.133L164.867 136.222L164.958 136.309L184.4 116.16ZM195.32 154.9V182.9H219.206L222.97 159.312L195.32 154.9ZM156.32 154.9L128.601 150.94L124.036 182.9H156.32V154.9ZM116.54 140.6L133.06 163.207L133.134 163.154L133.206 163.1L116.54 140.6ZM108.48 154.9L136.054 159.766L136.143 159.26L136.214 158.752L108.48 154.9ZM110.56 169.98L86.3742 184.088L86.5062 184.315L86.6424 184.539L110.56 169.98ZM122.52 178.04L115.729 205.204L115.857 205.236L115.986 205.267L122.52 178.04ZM142.02 182.72L135.486 209.947L135.497 209.95L135.508 209.952L142.02 182.72ZM177.12 203.52L154.627 220.196L154.697 220.289L154.767 220.383L177.12 203.52ZM184.92 240.44L212.539 245.043L212.57 244.858L212.598 244.673L184.92 240.44ZM171.92 270.34L193.651 287.997L193.74 287.887L193.828 287.777L171.92 270.34ZM145.92 289.84L157.053 315.532L157.153 315.488L157.253 315.444L145.92 289.84ZM110.04 268.6C94.4604 268.6 87.2822 264.764 83.825 261.48L45.255 302.08C62.5978 318.556 85.7529 324.6 110.04 324.6V268.6ZM83.825 261.48C81.4265 259.201 79.1638 255.934 80.719 246.603L25.481 237.397C21.4895 261.346 26.8535 284.599 45.255 302.08L83.825 261.48ZM53.1 270H92.1V214H53.1V270ZM64.461 237.518C62.1088 252.024 65.9645 267.291 78.5424 278.36L115.538 236.32C116.868 237.49 118.368 239.456 119.207 242.062C119.997 244.515 119.781 246.222 119.739 246.482L64.461 237.518ZM79.0306 278.78C90.4005 288.33 104.378 290.8 116.28 290.8V234.8C115.147 234.8 114.296 234.739 113.693 234.665C113.09 234.592 112.794 234.513 112.744 234.499C112.673 234.478 113.697 234.764 115.049 235.9L79.0306 278.78ZM116.28 290.8C128.546 290.8 141.275 288.036 152.357 280.278L120.243 234.402C120.925 233.924 120.307 234.8 116.28 234.8V290.8ZM152.357 280.278C163.914 272.189 171.081 260.421 173.299 246.742L118.021 237.778C118.034 237.696 118.177 236.997 118.75 236.074C119.331 235.139 119.968 234.594 120.243 234.402L152.357 280.278ZM173.362 246.334C175.033 234.971 173.426 222.642 166.097 211.648L119.503 242.712C118.759 241.597 118.291 240.371 118.085 239.287C117.894 238.279 118.01 237.829 117.958 238.186L173.362 246.334ZM166.544 212.34C159.156 200.52 147.772 194.263 136.473 191.604L123.647 246.116C124.026 246.205 123.423 246.121 122.355 245.424C121.195 244.666 119.984 243.504 119.056 242.02L166.544 212.34ZM136.58 191.63L118.12 187.21L105.08 241.67L123.54 246.09L136.58 191.63ZM118.249 187.241C107.3 184.565 102.252 180.461 99.648 176.888L54.392 209.872C66.6945 226.752 84.6998 236.689 104.951 241.639L118.249 187.241ZM99.648 176.888C97.2334 173.575 95.5904 169.044 96.8827 160.793L41.5573 152.127C38.3429 172.65 41.8999 192.731 54.392 209.872L99.648 176.888ZM96.8843 160.783C97.9393 154.031 100.243 148.982 103.441 144.92L59.4393 110.28C49.8107 122.511 43.9673 136.703 41.5557 152.137L96.8843 160.783ZM103.616 144.694C107.069 140.215 111.545 136.622 117.594 133.91L94.6864 82.8097C80.6285 89.1116 68.6376 98.345 59.2637 110.506L103.616 144.694ZM117.594 133.91C123.501 131.262 130.938 129.6 140.46 129.6V73.6C124.329 73.6 108.886 76.4443 94.6865 82.8097L117.594 133.91ZM140.46 129.6C155.516 129.6 161.933 133.339 164.777 136.133L204.023 96.1866C187.107 79.5676 164.231 73.6 140.46 73.6V129.6ZM164.958 136.309C166.872 138.157 169.159 141.155 167.67 150.488L222.97 159.312C226.681 136.058 221.688 113.23 203.842 96.0107L164.958 136.309ZM195.32 126.9H156.32V182.9H195.32V126.9ZM184.039 158.86C185.869 146.048 183.136 131.434 171.47 120.324L132.85 160.876C131.137 159.244 129.75 157.023 129.045 154.596C128.397 152.37 128.6 150.948 128.601 150.94L184.039 158.86ZM171.47 120.324C160.292 109.678 145.862 107.4 134.74 107.4V163.4C136.817 163.4 137.432 163.64 137.066 163.53C136.599 163.391 134.82 162.752 132.85 160.876L171.47 120.324ZM134.74 107.4C122.974 107.4 110.576 110.173 99.8736 118.1L133.206 163.1C132.939 163.298 132.694 163.438 132.506 163.529C132.32 163.619 132.236 163.639 132.292 163.623C132.42 163.586 133.158 163.4 134.74 163.4V107.4ZM100.02 117.993C88.5763 126.355 82.5091 138.355 80.7462 151.048L136.214 158.752C136.236 158.591 136.159 159.29 135.537 160.393C134.879 161.562 133.966 162.545 133.06 163.207L100.02 117.993ZM80.9061 150.034C79.003 160.818 79.8573 172.916 86.3742 184.088L134.746 155.872C135.475 157.122 135.831 158.348 135.957 159.264C136.073 160.103 135.952 160.343 136.054 159.766L80.9061 150.034ZM86.6424 184.539C93.7245 196.173 104.744 202.458 115.729 205.204L129.311 150.876C129.114 150.827 129.854 150.981 131.018 151.766C132.27 152.609 133.527 153.86 134.478 155.421L86.6424 184.539ZM115.986 205.267L135.486 209.947L148.554 155.493L129.054 150.813L115.986 205.267ZM135.508 209.952C147.065 212.716 152.172 216.883 154.627 220.196L199.613 186.844C187.162 170.05 168.869 160.351 148.532 155.488L135.508 209.952ZM154.767 220.383C156.765 223.031 158.604 227.299 157.242 236.207L212.598 244.673C215.742 224.114 212.381 203.768 199.473 186.657L154.767 220.383ZM157.301 235.837C156.121 242.915 153.606 248.387 150.012 252.903L193.828 287.777C203.754 275.306 209.905 260.845 212.539 245.043L157.301 235.837ZM150.189 252.683C146.434 257.304 141.44 261.203 134.587 264.236L157.253 315.444C171.546 309.117 183.886 300.016 193.651 287.997L150.189 252.683ZM134.787 264.148C128.511 266.868 120.456 268.6 110.04 268.6V324.6C126.664 324.6 142.529 321.825 157.053 315.532L134.787 264.148ZM209.258 294L181.605 289.606L176.458 322H209.258V294ZM239.418 104.2V76.2H215.516L211.765 99.8058L239.418 104.2ZM356.418 104.2L384.049 108.733L389.387 76.2H356.418V104.2ZM350.958 137.48V165.48H374.739L378.589 142.013L350.958 137.48ZM272.178 137.48V109.48H248.268L244.524 133.096L272.178 137.48ZM265.418 180.12L237.764 175.736L232.63 208.12H265.418V180.12ZM335.098 180.12L362.763 184.443L367.813 152.12H335.098V180.12ZM329.898 213.4V241.4H353.863L357.563 217.723L329.898 213.4ZM260.218 213.4V185.4H236.327L232.567 208.994L260.218 213.4ZM252.678 260.72L225.027 256.314L219.864 288.72H252.678V260.72ZM331.458 260.72L359.123 265.043L364.173 232.72H331.458V260.72ZM326.258 294V322H350.223L353.923 298.323L326.258 294ZM236.911 298.394L267.071 108.594L211.765 99.8058L181.605 289.606L236.911 298.394ZM239.418 132.2H356.418V76.2H239.418V132.2ZM328.788 99.6668L323.328 132.947L378.589 142.013L384.049 108.733L328.788 99.6668ZM350.958 109.48H272.178V165.48H350.958V109.48ZM244.524 133.096L237.764 175.736L293.073 184.504L299.833 141.864L244.524 133.096ZM265.418 208.12H335.098V152.12H265.418V208.12ZM307.434 175.797L302.234 209.077L357.563 217.723L362.763 184.443L307.434 175.797ZM329.898 185.4H260.218V241.4H329.898V185.4ZM232.567 208.994L225.027 256.314L280.33 265.126L287.87 217.806L232.567 208.994ZM252.678 288.72H331.458V232.72H252.678V288.72ZM303.794 256.397L298.594 289.677L353.923 298.323L359.123 265.043L303.794 256.397ZM326.258 266H209.258V322H326.258V266Z" fill="black" mask="url(#path-1-outside-1_1_2)"/>
</svg>
